<?xml version="1.0" standalone="no"?>
<!DOCTYPE svg PUBLIC "-//W3C//DTD SVG 20010904//EN"
 "http://www.w3.org/TR/2001/REC-SVG-20010904/DTD/svg10.dtd">
<svg version="1.0" xmlns="http://www.w3.org/2000/svg"
 width="512.000000pt" height="512.000000pt" viewBox="0 0 512.000000 512.000000"
 preserveAspectRatio="xMidYMid meet">
<metadata>
Created by potrace 1.14, written by Peter Selinger 2001-2017
</metadata>
<g transform="translate(0.000000,512.000000) scale(0.100000,-0.100000)"
fill="#000000" stroke="none">
<path d="M2282 4993 c-295 -35 -609 -131 -851 -259 l-83 -44 -658 0 c-624 0
-658 -1 -673 -18 -16 -17 -17 -149 -17 -1690 l0 -1671 21 -19 c18 -18 37 -19
236 -19 l217 0 62 -92 c100 -145 160 -218 294 -351 116 -115 159 -153 275
-240 170 -126 387 -245 575 -315 41 -15 91 -33 110 -41 39 -16 246 -70 300
-78 19 -4 78 -13 130 -22 187 -31 516 -26 755 11 123 19 405 99 510 145 159
69 381 190 465 252 112 83 176 134 182 143 10 13 10 7 9 -71 -2 -95 1 -97 163
-96 93 0 141 4 151 12 11 9 15 34 15 92 0 44 5 88 10 98 11 21 91 60 122 60
10 0 50 -29 88 -65 51 -48 74 -64 85 -58 33 19 205 196 205 212 0 9 -21 37
-46 61 -26 25 -54 58 -64 74 -18 28 -18 30 1 78 29 74 36 78 134 80 60 1 91 6
101 15 12 12 14 270 14 1741 0 1547 -2 1730 -16 1750 l-15 22 -656 0 -657 0
-140 69 c-224 110 -531 204 -741 227 -27 3 -79 9 -115 14 -92 12 -376 8 -498
-7z"/>
</g>
</svg>
